<svg id="Group_1" data-name="Group 1" xmlns="http://www.w3.org/2000/svg" width="24.307" height="24" viewBox="0 0 24.307 24">
  <path id="Path_1" data-name="Path 1" d="M1.848,9.384a.709.709,0,0,0,.664-.491,10.638,10.638,0,0,1,19.78-1.4.7.7,0,0,0,1.279-.59A12.121,12.121,0,0,0,12.673,0,11.956,11.956,0,0,0,1.184,8.475a.674.674,0,0,0,.467.86A.58.58,0,0,0,1.848,9.384Z" transform="translate(-0.52)" fill="#1ba1be"/>
  <path id="Path_2" data-name="Path 2" d="M4.4,3.758,3.075,6.8,0,5.478.738,7.345,3.813,8.671,5.142,5.625Z" transform="translate(19.165)" fill="#1ba1be"/>
  <path id="Path_3" data-name="Path 3" d="M11.561,24A11.955,11.955,0,0,0,23.05,15.525a.693.693,0,0,0-1.329-.393,10.644,10.644,0,0,1-19.78,1.376.733.733,0,0,0-.935-.344.731.731,0,0,0-.344.934A12.164,12.164,0,0,0,11.561,24Z" transform="translate(0.593)" fill="#1ba1be"/>
  <path id="Path_4" data-name="Path 4" d="M19.133,20.242l1.328-3.071,3.075,1.351L22.8,16.655,19.724,15.3,18.4,18.375Z" transform="translate(-18.395)" fill="#1ba1be"/>
</svg>
